<svg width="41" height="29" viewBox="0 0 41 29" fill="none" xmlns="http://www.w3.org/2000/svg">
<rect width="41" height="29" rx="5.76117" fill="#0060AF"/>
<path fill-rule="evenodd" clip-rule="evenodd" d="M8.91856 17.4122C8.91856 17.023 8.92309 15.9826 8.91281 15.8545C8.92177 14.3064 7.71602 13.2144 6.95428 13.2996C6.42718 13.3423 5.98534 13.5429 5.74824 14.1201C5.52831 14.658 5.72495 15.3734 6.45585 15.5413C7.2373 15.7216 7.69376 15.8716 8.02403 16.0833C8.42872 16.3424 8.75909 16.8374 8.76786 17.4128" fill="white"/>
<path fill-rule="evenodd" clip-rule="evenodd" d="M8.59197 17.4127C8.59452 16.9138 8.29621 16.4727 7.90634 16.2356C7.5605 16.0261 7.09621 15.8885 6.34721 15.7111C6.11567 15.6558 5.87349 15.533 5.79851 15.3765C5.60018 15.563 5.56415 15.9824 5.59904 16.2276C5.6396 16.5112 5.99467 16.9786 6.52932 16.9969C6.85582 17.0092 7.26861 16.9314 7.46657 16.8921C7.80807 16.8232 8.34837 17.0229 8.43438 17.4121" fill="white"/>
<path fill-rule="evenodd" clip-rule="evenodd" d="M9.19471 10.8867C8.28811 10.8867 7.50515 11.4448 7.50788 12.4104C7.51071 13.2225 8.2103 13.6572 8.46003 13.9677C8.83727 14.4356 9.04145 14.9894 9.06258 15.8369C9.07918 16.5113 9.07833 17.1773 9.08201 17.4133H9.28204C9.27864 17.1664 9.26959 16.4594 9.27987 15.816C9.29345 14.9683 9.50499 14.4356 9.88242 13.9677C10.1343 13.6572 10.8332 13.2225 10.8348 12.4104C10.8382 11.4448 10.0556 10.8867 9.14991 10.8867" fill="white"/>
<path fill-rule="evenodd" clip-rule="evenodd" d="M9.42468 17.4122C9.42468 17.023 9.41997 15.9826 9.43006 15.8545C9.4212 14.3064 10.6262 13.2144 11.3886 13.2996C11.9157 13.3423 12.357 13.5429 12.5948 14.1201C12.8145 14.658 12.6168 15.3734 11.8868 15.5413C11.1048 15.7216 10.649 15.8716 10.3179 16.0833C9.91368 16.3424 9.60642 16.8374 9.59699 17.4128" fill="white"/>
<path fill-rule="evenodd" clip-rule="evenodd" d="M9.75136 17.4127C9.74853 16.9138 10.0467 16.4727 10.4355 16.2356C10.7828 16.0261 11.2476 15.8885 11.9959 15.7111C12.2279 15.6558 12.4698 15.533 12.5435 15.3765C12.7428 15.563 12.7788 15.9824 12.7438 16.2276C12.7025 16.5112 12.3483 16.9786 11.8146 16.9969C11.4883 17.0092 11.0732 16.9314 10.8761 16.8921C10.5359 16.8232 9.99412 17.0229 9.90773 17.4121" fill="white"/>
<path fill-rule="evenodd" clip-rule="evenodd" d="M10.0308 19.0232L9.91486 18.233L10.1949 18.1934C10.263 18.1848 10.3459 18.1959 10.3791 18.2357C10.4158 18.2773 10.4271 18.3117 10.4341 18.3663C10.4448 18.4339 10.4238 18.5119 10.3424 18.5508V18.5532C10.4333 18.5532 10.4883 18.6142 10.5043 18.7172C10.5066 18.7391 10.5135 18.7915 10.5066 18.8354C10.4881 18.9397 10.4215 18.9733 10.3089 18.988L10.0308 19.0232ZM10.211 18.8818C10.2442 18.8773 10.2779 18.8756 10.3042 18.8599C10.3446 18.8354 10.3409 18.7829 10.3352 18.7438C10.3213 18.6582 10.2973 18.6255 10.1999 18.639L10.1386 18.6478L10.1775 18.8861L10.211 18.8818ZM10.1525 18.5167C10.1896 18.5111 10.2398 18.5069 10.2607 18.4741C10.2717 18.4522 10.2857 18.4347 10.2764 18.386C10.265 18.3282 10.2446 18.2923 10.1658 18.3062L10.0925 18.3172L10.1215 18.5197L10.1525 18.5167Z" fill="white"/>
<path fill-rule="evenodd" clip-rule="evenodd" d="M11.2436 18.5482C11.2458 18.5629 11.2483 18.5793 11.2493 18.594C11.2719 18.738 11.2436 18.8574 11.0701 18.8902C10.8135 18.9363 10.7643 18.7876 10.7192 18.5793L10.6952 18.4665C10.6598 18.2673 10.6446 18.1164 10.8947 18.0698C11.0357 18.0459 11.1289 18.0983 11.1677 18.2293C11.1737 18.2488 11.1813 18.2681 11.1841 18.2878L11.0306 18.3174C11.0129 18.2681 10.9894 18.1801 10.9204 18.1875C10.7965 18.2015 10.8374 18.3454 10.8501 18.4056L10.8963 18.6219C10.9101 18.6873 10.9377 18.7918 11.0449 18.7717C11.1319 18.7554 11.0939 18.6288 11.0862 18.5768" fill="white"/>
<path fill-rule="evenodd" clip-rule="evenodd" d="M11.4901 18.7873L11.4371 17.9696L11.6431 17.9109L12.0754 18.622L11.9131 18.6674L11.8106 18.4866L11.6304 18.5372L11.6537 18.7426L11.4901 18.7873ZM11.6153 18.4051L11.7455 18.3699L11.5726 18.0391L11.6153 18.4051Z" fill="white"/>
<path fill-rule="evenodd" clip-rule="evenodd" d="M6.39807 18.1692C6.46258 17.9764 6.5203 17.8344 6.76654 17.8975C6.89829 17.9319 6.97996 17.986 6.9761 18.1289C6.97544 18.1607 6.96422 18.1932 6.95686 18.2245L6.80361 18.1851C6.82369 18.1061 6.83643 18.0435 6.73231 18.0136C6.61197 17.9828 6.58264 18.1191 6.56604 18.1779L6.5037 18.3921C6.48389 18.4558 6.46013 18.561 6.56604 18.5882C6.65356 18.6101 6.70656 18.53 6.73825 18.4129L6.63111 18.3863L6.66818 18.2624L6.92027 18.338L6.80059 18.7512L6.68459 18.7218L6.71071 18.6344H6.70741C6.65394 18.7059 6.58886 18.7134 6.5318 18.7031C6.27971 18.6395 6.30603 18.4857 6.3662 18.2803" fill="white"/>
<path fill-rule="evenodd" clip-rule="evenodd" d="M7.33629 18.5181L7.26037 18.8542L7.08948 18.8198L7.27159 18.0349L7.56291 18.0963C7.73343 18.1307 7.78492 18.2015 7.76078 18.3474C7.74701 18.4312 7.70278 18.5213 7.59479 18.514L7.59366 18.5127C7.68495 18.5424 7.69268 18.5855 7.67675 18.6597C7.66986 18.6914 7.62242 18.8831 7.65515 18.9141L7.65628 18.9377L7.47945 18.8946C7.47209 18.8415 7.49718 18.7459 7.50708 18.6929C7.51698 18.6461 7.53292 18.58 7.482 18.5553C7.4422 18.5354 7.4273 18.5364 7.38222 18.5268L7.33629 18.5181ZM7.36543 18.3964L7.48049 18.4253C7.55038 18.4349 7.58923 18.401 7.603 18.3222C7.61545 18.2499 7.59932 18.2217 7.53661 18.2077L7.41325 18.1843L7.36543 18.3964Z" fill="white"/>
<path fill-rule="evenodd" clip-rule="evenodd" d="M8.43256 18.2102L8.60156 18.2285L8.52875 18.7803C8.49339 18.9552 8.42096 19.0317 8.2148 19.0078C8.00505 18.983 7.95525 18.8939 7.96789 18.7175L8.04127 18.1663L8.21159 18.1844L8.1385 18.7234C8.13067 18.7819 8.11624 18.8686 8.22772 18.8792C8.32665 18.8862 8.34909 18.8249 8.36032 18.7489" fill="white"/>
<path fill-rule="evenodd" clip-rule="evenodd" d="M8.78784 19.0378L8.83877 18.2488L9.16338 18.2619C9.31692 18.269 9.357 18.3859 9.35229 18.4976C9.34776 18.5654 9.32513 18.6412 9.26175 18.6824C9.20978 18.7173 9.14292 18.7256 9.08105 18.7228L8.97524 18.7173L8.95411 19.048L8.78784 19.0378ZM8.97991 18.5969L9.06592 18.6014C9.1358 18.6038 9.18211 18.578 9.18814 18.4822C9.19163 18.3903 9.15429 18.3746 9.06375 18.3709L8.99566 18.3687L8.97991 18.5969Z" fill="white"/>
<path fill-rule="evenodd" clip-rule="evenodd" d="M31.689 11.6494L30.3985 13.8361C29.9114 13.4668 29.3166 13.1951 28.5577 13.1951C26.7618 13.1951 26.0322 14.4447 26.0322 15.3249C26.0322 15.9784 26.4905 16.9424 28.0885 16.9424C28.7594 16.9424 29.7128 16.5069 29.9873 16.3086L28.711 18.8455C28.1026 18.9588 27.9026 19.029 27.3877 19.0439C24.5275 19.1236 23.3718 17.4834 23.3726 15.8075C23.3745 13.5919 25.4846 10.8975 28.9829 10.8975C29.1971 10.8975 29.4593 10.9668 29.6835 11.0435L29.9101 10.7729" fill="white"/>
<path fill-rule="evenodd" clip-rule="evenodd" d="M37.0141 10.8416L37.3795 18.7886H34.6598L34.6583 17.4257H32.8037L32.1934 18.7886H29.2438L32.3275 13.1138L31.6322 13.1095L32.9533 10.8416H37.0141ZM34.6405 13.2727L33.592 15.5843H34.6722L34.6405 13.2727Z" fill="white"/>
<path fill-rule="evenodd" clip-rule="evenodd" d="M21.6557 10.8415C23.0025 10.8486 23.7636 11.531 23.7636 12.5167C23.7636 13.4256 22.9609 14.23 22.0798 14.646C22.987 14.9574 23.0654 15.7215 23.0654 16.262C23.0654 17.5682 21.6615 18.7886 19.8365 18.7886H15.8564L17.4089 13.1928L16.7712 13.1893L18.0748 10.8415C18.0748 10.8415 20.5605 10.8345 21.6557 10.8415ZM20.3342 14.0635C20.6128 14.0635 21.1047 13.9977 21.2277 13.4944C21.3625 12.9479 20.9009 12.9332 20.6794 12.9332L19.8882 12.9301L19.6122 14.0635H20.3342ZM19.2156 15.468L18.8513 16.7741H19.783C20.1495 16.7741 20.6491 16.6042 20.7715 16.1791C20.8924 15.753 20.5432 15.468 20.178 15.468H19.2156Z" fill="white"/>
<path fill-rule="evenodd" clip-rule="evenodd" d="M9.23043 19.7652C7.85228 19.7652 6.43612 19.4483 5.02175 18.8217L4.98705 18.8058L4.97045 18.7728C4.33574 17.5221 4 16.1543 4 14.816C4 13.4796 4.32197 12.1703 4.95706 10.9213L4.9746 10.8881L5.00997 10.8716C6.31833 10.293 7.72571 10 9.19459 10C10.5627 10 12.0241 10.3262 13.4197 10.9451L13.4554 10.9599L13.472 10.9937C14.1188 12.2674 14.4599 13.635 14.4599 14.9512C14.4599 16.2622 14.1324 17.5727 13.4847 18.8457L13.4678 18.879L13.4317 18.8945C12.1433 19.4638 10.6904 19.7652 9.23043 19.7652ZM5.15288 18.6502C6.52679 19.2536 7.89721 19.5582 9.23066 19.5582C10.6445 19.5582 12.0506 19.2697 13.3024 18.7228C13.9242 17.4894 14.2394 16.2199 14.2394 14.9512C14.2394 13.6772 13.9104 12.3522 13.2882 11.1159C11.9338 10.5216 10.5193 10.2064 9.19482 10.2064C7.77281 10.2064 6.40975 10.488 5.141 11.0435C4.53195 12.254 4.22195 13.5225 4.22195 14.816C4.22195 16.1118 4.54402 17.4374 5.15288 18.6502Z" fill="white"/>
</svg>
