<svg width="41" height="29" viewBox="0 0 41 29" fill="none" xmlns="http://www.w3.org/2000/svg">
<rect width="41" height="29" rx="5.76117" fill="white"/>
<path fill-rule="evenodd" clip-rule="evenodd" d="M6.64895 17.2205L8.04038 18.9268H4.59546L6.64895 17.2205ZM6.21128 16.6935L3.51649 18.932L3.51538 13.4266L6.21128 16.6935ZM12.6953 11.1498C12.6953 11.1498 12.1038 10.8724 11.4165 10.9129C10.6308 10.9588 9.97346 11.2571 9.59558 11.6509C9.3578 11.8982 9.09494 12.2 8.9629 12.5277C8.77142 13.0017 8.73054 13.6281 8.73054 13.6281C8.73054 13.6281 8.45575 13.3972 8.11145 12.7242C7.71114 11.9414 7.60164 11.4673 7.54739 10.9263C7.49911 10.4516 7.5749 9.98218 7.5749 9.98218H12.6953V11.1498ZM12.6953 12.7106V16.1819C12.6953 16.1819 12.377 16.303 12.1173 16.303C11.8577 16.303 11.4155 16.2649 10.9019 15.9853C10.3921 15.708 10.1099 15.3725 9.89114 15.0684C9.66927 14.7592 9.48608 14.3305 9.43161 14.0216C9.38785 13.7745 9.34067 13.158 9.59558 12.657C9.73391 12.3851 10.1052 11.9191 10.8199 11.8926C11.4026 11.8705 11.7256 12.0222 12.0218 12.1831C12.5853 12.4899 12.6953 12.7106 12.6953 12.7106ZM7.11974 15.9381L8.04334 15.1758C7.74899 14.8034 7.6712 14.6632 7.34216 14.1825C7.00527 13.6905 6.72307 13.1492 6.48176 12.5141C6.22055 11.8261 6.15746 11.4399 6.1863 10.9263C6.22243 10.2729 6.37248 9.98218 6.37248 9.98218H3.51416L3.51549 11.5076C3.51549 11.5076 5.70345 14.2228 7.11974 15.9381ZM9.75865 18.9243H12.6952V16.804C12.6952 16.804 11.9668 17.1349 11.4934 17.1616C11.2115 17.1779 10.9379 17.1886 10.4965 17.0723C10.0058 16.9432 9.72705 16.8174 9.27227 16.4459C8.90698 16.148 8.48932 15.708 8.48932 15.708L7.5603 16.475C7.99133 16.9971 8.30966 17.3771 8.40711 17.4794C8.8261 17.9178 9.00366 18.079 9.28586 18.2352C9.56794 18.3918 10.5104 18.3833 10.5104 18.3833L9.75865 18.9243Z" fill="#E94E0F"/>
<path fill-rule="evenodd" clip-rule="evenodd" d="M34.9043 17.0382C34.9043 17.6525 34.988 18.6623 34.2932 18.9082V18.9491H36.932V18.9082C36.2376 18.6489 36.321 17.6525 36.321 17.0382V11.8928C36.321 11.2788 36.2376 10.2687 36.932 10.0094V9.96851H34.2932V10.0094C35.0016 10.2687 34.9043 11.2651 34.9043 11.8928V17.0382ZM25.2286 11.8928L29.9924 17.83C30.6033 18.6077 31.0341 19.0583 32.0202 19.3857V11.7291C32.0202 10.9649 32.0202 10.4188 32.7426 10.0094V9.96851H30.2979V10.0094C31.0341 10.4188 31.02 10.9649 31.02 11.7291V16.9018L25.937 10.5962L25.7423 10.3232C25.6453 10.2141 25.5899 10.1459 25.5343 9.98219V9.96851H23.5062V10.0094C24.2285 10.4188 24.2285 10.9649 24.2285 11.7291V17.175C24.2285 17.9391 24.2285 18.4849 23.4926 18.9082V18.9491H25.951V18.9082C25.2147 18.4849 25.2286 17.9391 25.2286 17.175V11.8928ZM17.4632 13.5854V10.9104L18.3935 10.8146C19.227 10.7327 20.1157 11.2242 20.1157 12.166C20.1157 13.2852 18.824 13.5854 17.9215 13.5854H17.4632ZM17.4632 17.8572V14.486L18.4352 14.4315C19.6575 14.3632 20.9629 14.9366 20.9629 16.2604C20.9629 17.557 19.8105 18.0756 18.6713 17.9665L17.4632 17.8572ZM16.0464 17.0246C16.0464 17.6525 16.1298 18.6489 15.4351 18.9082V18.9491H17.7268C18.7684 18.9491 19.866 18.9902 20.838 18.5261C21.7685 18.0892 22.5047 17.1883 22.5047 16.1374C22.5047 14.8001 21.4906 13.981 20.2406 13.7215C21.0324 13.3805 21.6294 12.8619 21.6294 11.9474C21.6294 10.7327 20.5603 9.96851 18.7271 9.96851H15.4351V10.0094C16.1438 10.2687 16.0464 11.2651 16.0464 11.8791V17.0246Z" fill="#005B6A"/>
</svg>
