<svg width="53" height="41" viewBox="0 0 53 41" fill="none" xmlns="http://www.w3.org/2000/svg">
<rect x="3" y="3" width="47" height="35" rx="9" stroke="white" stroke-opacity="0.2" stroke-width="6"/>
<rect x="6" y="6" width="41" height="29" rx="5.76117" fill="#00529C"/>
<path fill-rule="evenodd" clip-rule="evenodd" d="M18.1543 18.5806H20.1084C20.8997 18.5806 21.4897 18.9273 21.4897 19.6571C21.4897 20.1923 21.2162 20.4903 20.7411 20.6482V20.6602C21.3073 20.7761 21.5995 21.0802 21.5995 21.5969C21.5995 22.6127 20.7044 22.8254 19.9437 22.8254H18.1543V18.5806ZM19.2861 20.259H19.603C19.9743 20.259 20.358 20.1678 20.358 19.8087C20.358 19.42 19.9926 19.3831 19.6148 19.3831H19.2861V20.259ZM19.2861 22.0228H19.6215C20.035 22.0228 20.4671 21.9619 20.4671 21.53C20.4671 21.0682 20.023 21.0252 19.6334 21.0252H19.2861V22.0228Z" fill="white"/>
<path fill-rule="evenodd" clip-rule="evenodd" d="M23.0855 18.5806H24.4734L26.1109 22.8254H24.869L24.5527 21.9195H22.9578L22.6229 22.8254H21.4725L23.0855 18.5806ZM23.7797 19.4564H23.7669L23.2194 21.1168H24.2846L23.7797 19.4564Z" fill="white"/>
<path fill-rule="evenodd" clip-rule="evenodd" d="M26.2685 18.5806H27.7111L29.1477 21.4634H29.1596L29.1416 18.5806H30.1767V22.8254H28.7705L27.2847 19.9246H27.2731L27.3094 22.8254H26.2685V18.5806Z" fill="white"/>
<path fill-rule="evenodd" clip-rule="evenodd" d="M30.561 18.5806H31.693V20.3143H31.7052L32.9831 18.5806H34.3471L32.7763 20.5569L34.4688 22.8254H33.0257L31.7052 20.8977H31.693V22.8254H30.561V18.5806Z" fill="white"/>
<path fill-rule="evenodd" clip-rule="evenodd" d="M35.8725 18.5806H37.8266C38.6177 18.5806 39.2084 18.9273 39.2084 19.6571C39.2084 20.1923 38.9349 20.4903 38.4599 20.6482V20.6602C39.0259 20.7761 39.3181 21.0802 39.3181 21.5969C39.3181 22.6127 38.4232 22.8254 37.6626 22.8254H35.8725V18.5806ZM37.0049 20.259H37.3212C37.6926 20.259 38.0758 20.1678 38.0758 19.8087C38.0758 19.42 37.711 19.3831 37.3338 19.3831H37.0049V20.259ZM37.0049 22.0228H37.3399C37.7534 22.0228 38.1858 21.9619 38.1858 21.53C38.1858 21.0682 37.7416 21.0252 37.3519 21.0252H37.0049V22.0228Z" fill="white"/>
<path fill-rule="evenodd" clip-rule="evenodd" d="M39.569 18.5806H41.59C42.3446 18.5806 42.9597 18.921 42.9597 19.6512C42.9597 20.2167 42.6918 20.5938 42.1441 20.7213V20.7334C42.5086 20.8309 42.5334 21.153 42.7465 21.67L43.1606 22.8254H41.9798L41.7362 22.0596C41.5047 21.3298 41.3586 21.1469 40.9385 21.1469H40.701V22.8254H39.569V18.5806ZM40.701 20.3442H40.9995C41.3647 20.3442 41.8275 20.3318 41.8275 19.8514C41.8275 19.4564 41.4314 19.3831 40.9995 19.3831H40.701V20.3442Z" fill="white"/>
<mask id="mask0_292_1159" style="mask-type:luminance" maskUnits="userSpaceOnUse" x="8" y="16" width="37" height="9">
<path fill-rule="evenodd" clip-rule="evenodd" d="M8.34283 24.9693H44.6045V16.4399H8.34283V24.9693Z" fill="white"/>
</mask>
<g mask="url(#mask0_292_1159)">
<path fill-rule="evenodd" clip-rule="evenodd" d="M43.4725 22.8254H44.6045V18.5806H43.4725V22.8254Z" fill="white"/>
<path fill-rule="evenodd" clip-rule="evenodd" d="M15.5706 16.4399H9.64509C8.92584 16.4399 8.34277 17.0369 8.34277 17.7734V17.7875V23.6361C8.34277 24.3655 8.91509 24.9584 9.62508 24.9693H15.5675C16.2869 24.9693 16.8701 24.3723 16.8701 23.6361L16.8729 17.7734C16.8729 17.0369 16.29 16.4399 15.5706 16.4399ZM10.3495 24.2857L10.0262 24.2893C9.63488 24.2893 9.31769 23.9681 9.31769 23.5718L9.31583 23.5153V18.101L9.31787 17.8094C9.33251 17.4259 9.62413 17.1171 10.0062 17.1171H10.6634C11.2588 17.1171 11.7418 17.6345 11.7418 18.245C11.7418 18.5467 11.6235 18.8207 11.4317 19.0198L9.75494 20.7197L11.3265 22.3184C11.5292 22.5271 11.6516 22.8014 11.6516 23.1018C11.6516 23.7558 11.0686 24.2857 10.3495 24.2857ZM15.1808 24.2804L12.2508 24.2791C12.2508 24.2791 12.5897 23.5475 12.5897 23.0948C12.5897 22.5428 12.4048 22.0495 12.1155 21.7231L11.1134 20.7025L12.1363 19.6466C12.4407 19.3606 12.643 18.8531 12.643 18.275C12.643 17.8172 12.5163 17.4116 12.3123 17.1171H13.0223C13.618 17.1171 14.101 17.6345 14.101 18.245C14.101 18.5467 13.9828 18.8207 13.791 19.0198L12.1463 20.7019L15.5623 24.1821C15.4541 24.2502 15.3175 24.2804 15.1808 24.2804ZM15.8963 23.1939L13.4483 20.7013L14.6142 19.5173C14.8518 19.221 15.0022 18.7743 15.0022 18.2751C15.0022 17.8144 14.8736 17.399 14.6678 17.1043L15.1897 17.1198C15.581 17.1198 15.8982 17.4416 15.8982 17.8377L15.8963 23.1939Z" fill="white"/>
</g>
</svg>
