<svg width="30" height="30" viewBox="0 0 30 30" fill="none" xmlns="http://www.w3.org/2000/svg">
<path d="M26.25 21.25V11.25C26.25 9.86929 25.1307 8.75 23.75 8.75H20.625C19.9346 8.75 19.375 8.19035 19.375 7.5C19.375 6.80965 18.8154 6.25 18.125 6.25H11.875C11.1846 6.25 10.625 6.80965 10.625 7.5C10.625 8.19035 10.0654 8.75 9.375 8.75H6.25C4.86929 8.75 3.75 9.86929 3.75 11.25V21.25C3.75 22.6307 4.86929 23.75 6.25 23.75H23.75C25.1307 23.75 26.25 22.6307 26.25 21.25Z" stroke="#1985E7" stroke-width="1.5"/>
<path d="M17.8125 16.25C17.8125 17.8032 16.5532 19.0625 15 19.0625V20.9375C17.5889 20.9375 19.6875 18.8389 19.6875 16.25H17.8125ZM15 19.0625C13.4468 19.0625 12.1875 17.8032 12.1875 16.25H10.3125C10.3125 18.8389 12.4112 20.9375 15 20.9375V19.0625ZM12.1875 16.25C12.1875 14.6968 13.4468 13.4375 15 13.4375V11.5625C12.4112 11.5625 10.3125 13.6611 10.3125 16.25H12.1875ZM15 13.4375C16.5532 13.4375 17.8125 14.6968 17.8125 16.25H19.6875C19.6875 13.6611 17.5889 11.5625 15 11.5625V13.4375Z" fill="#1985E7"/>
</svg>
