<svg width="41" height="29" viewBox="0 0 41 29" fill="none" xmlns="http://www.w3.org/2000/svg">
<rect width="41" height="29" rx="5.76117" fill="#EE3124"/>
<path fill-rule="evenodd" clip-rule="evenodd" d="M3.51416 19.0223H12.879V9.86011H3.51416V19.0223Z" fill="white"/>
<path fill-rule="evenodd" clip-rule="evenodd" d="M9.75613 11.5913H4.77954L6.98327 14.4407H11.9603L9.75613 11.5913Z" fill="#ED3124"/>
<path fill-rule="evenodd" clip-rule="evenodd" d="M11.9603 14.4407H6.98327L4.77954 17.2898H9.75613L11.9603 14.4407Z" fill="#820024"/>
<path fill-rule="evenodd" clip-rule="evenodd" d="M35.4232 16.3547H34.2097V14.9425H35.4232C35.9892 14.9425 36.1918 15.3055 36.1918 15.6449C36.1918 15.9883 35.9892 16.3547 35.4232 16.3547ZM34.2097 12.5268H35.346C35.8227 12.5268 36.1066 12.7729 36.1066 13.1876C36.1066 13.6011 35.8227 13.847 35.346 13.847H34.2097V12.5268ZM36.6259 14.3649C36.8982 14.2188 37.3446 13.8072 37.3446 13.1369C37.3446 12.09 36.6147 11.4385 35.4394 11.4385H32.9707V17.442H35.5433C36.7067 17.442 37.43 16.7768 37.43 15.7036C37.43 14.8973 36.9465 14.5233 36.6259 14.3649ZM28.1498 15.2742C28.1033 15.1963 25.9825 11.4266 25.9825 11.4266H24.7708V17.4306H26.0089V13.844C26.1031 14.0011 28.1498 17.4791 28.1498 17.4791C28.1498 17.4791 30.187 14.0015 30.2779 13.8448V17.4306H31.5174V11.4266H30.3063C30.3063 11.4266 28.193 15.1963 28.1498 15.2742ZM22.012 17.442H23.2546V11.4385H22.012V17.442ZM19.9604 15.9958C19.5991 16.2781 19.1617 16.4266 18.7006 16.4266C17.5811 16.4266 16.7104 15.5547 16.7104 14.4409C16.7104 13.3269 17.5811 12.4543 18.7006 12.4543C19.1617 12.4543 19.5991 12.603 19.9604 12.8857L19.9776 12.8991L20.8411 12.0549L20.8214 12.037C20.2307 11.5376 19.4789 11.262 18.7006 11.262C16.8893 11.262 15.4158 12.6883 15.4158 14.4409C15.4158 16.1931 16.8893 17.619 18.7006 17.619C19.4789 17.619 20.2307 17.344 20.8214 16.8446L20.8411 16.8259L19.9776 15.9825L19.9604 15.9958Z" fill="white"/>
</svg>
