<svg width="30" height="30" viewBox="0 0 30 30" fill="none" xmlns="http://www.w3.org/2000/svg">
<path d="M15 26.25C21.2133 26.25 26.25 21.2133 26.25 15C26.25 8.7868 21.2133 3.75 15 3.75C8.7868 3.75 3.75 8.7868 3.75 15C3.75 21.2133 8.7868 26.25 15 26.25Z" stroke="#EB7D1C" stroke-width="1.5" stroke-linecap="round" stroke-linejoin="round"/>
<path d="M11.25 20H15H16.25C17.0834 20 18.75 19.5 18.75 17.5C18.75 15.5 17.0834 15 16.25 15H13.75C12.9166 15 11.25 14.5 11.25 12.5C11.25 10.5 12.9166 10 13.75 10H15H18.75" stroke="#EB7D1C" stroke-width="1.5" stroke-linecap="round" stroke-linejoin="round"/>
<path d="M15 20V22.5" stroke="#EB7D1C" stroke-width="1.5" stroke-linecap="round" stroke-linejoin="round"/>
<path d="M15 10V7.5" stroke="#EB7D1C" stroke-width="1.5" stroke-linecap="round" stroke-linejoin="round"/>
</svg>
