<svg width="27" height="28" viewBox="0 0 27 28" fill="none" xmlns="http://www.w3.org/2000/svg">
<path d="M27 14.3111C27 13.16 26.9081 12.32 26.7092 11.4489H13.7754V16.6444H21.3673C21.2142 17.9356 20.3877 19.88 18.5509 21.1866L18.5252 21.3605L22.6146 24.5801L22.8979 24.6089C25.5 22.1666 27 18.5733 27 14.3111Z" fill="#4285F4"/>
<path d="M13.7755 28C17.4948 28 20.6173 26.7555 22.898 24.6089L18.551 21.1866C17.3877 22.0111 15.8265 22.5866 13.7755 22.5866C10.1326 22.5866 7.04075 20.1445 5.93859 16.7689L5.77704 16.7829L1.52479 20.1273L1.46918 20.2844C3.73449 24.8577 8.38761 28 13.7755 28Z" fill="#34A853"/>
<path d="M5.93878 16.7686C5.64797 15.8975 5.47966 14.9641 5.47966 13.9997C5.47966 13.0352 5.64797 12.1019 5.92348 11.2308L5.91578 11.0453L1.61024 7.64714L1.46937 7.71524C0.535726 9.61303 0 11.7442 0 13.9997C0 16.2553 0.535726 18.3863 1.46937 20.2841L5.93878 16.7686Z" fill="#FBBC05"/>
<path d="M13.7755 5.41328C16.3622 5.41328 18.1071 6.54883 19.102 7.49778L22.9898 3.63999C20.6021 1.38445 17.4948 0 13.7755 0C8.38759 0 3.73447 3.14219 1.46916 7.71547L5.92327 11.2311C7.04073 7.85553 10.1326 5.41328 13.7755 5.41328Z" fill="#EB4335"/>
</svg>
