<svg width="29" height="28" viewBox="0 0 29 28" fill="none" xmlns="http://www.w3.org/2000/svg">
<path d="M24.9454 15.1658V15.1608" stroke="#717171" stroke-linecap="round" stroke-linejoin="round"/>
<path d="M22.6667 8.63333C22.971 7.68668 23.8761 7 24.9453 7C26.2642 7 27.3334 8.04467 27.3334 9.33333C27.3334 11.2079 25.3296 10.2862 25 12.25" stroke="#717171" stroke-linecap="round" stroke-linejoin="round"/>
<path d="M19.1667 17.5H9.83335C7.25602 17.5 5.16669 19.5894 5.16669 22.1667V24.5H14.5H23.8334V22.1667C23.8334 19.5894 21.744 17.5 19.1667 17.5Z" stroke="#717171" stroke-linecap="round" stroke-linejoin="round"/>
<path d="M14.5 12.8333C17.0773 12.8333 19.1667 10.744 19.1667 8.16667C19.1667 5.58934 17.0773 3.5 14.5 3.5C11.9227 3.5 9.83337 5.58934 9.83337 8.16667C9.83337 10.744 11.9227 12.8333 14.5 12.8333Z" stroke="#717171" stroke-linecap="round" stroke-linejoin="round"/>
</svg>
