<svg width="36" height="38" viewBox="0 0 36 38" fill="none" xmlns="http://www.w3.org/2000/svg">
<rect y="0.5" width="36" height="37" rx="10" fill="white" fill-opacity="0.12"/>
<path d="M14.75 24.9167V26C14.75 26.4269 14.8341 26.8495 14.9974 27.2438C15.1607 27.638 15.4001 27.9963 15.7019 28.2981C16.0037 28.5999 16.362 28.8393 16.7562 29.0026C17.1506 29.166 17.5732 29.25 18 29.25C18.4268 29.25 18.8494 29.166 19.2438 29.0026C19.638 28.8393 19.9963 28.5999 20.2981 28.2981C20.5999 27.9963 20.8393 27.638 21.0026 27.2438C21.1659 26.8495 21.25 26.4269 21.25 26V24.9167" fill="white"/>
<path d="M14.75 24.9167V26C14.75 26.4269 14.8341 26.8495 14.9974 27.2438C15.1607 27.638 15.4001 27.9963 15.7019 28.2981C16.0037 28.5999 16.362 28.8393 16.7562 29.0026C17.1506 29.166 17.5732 29.25 18 29.25C18.4268 29.25 18.8494 29.166 19.2438 29.0026C19.638 28.8393 19.9963 28.5999 20.2981 28.2981C20.5999 27.9963 20.8393 27.638 21.0026 27.2438C21.1659 26.8495 21.25 26.4269 21.25 26V24.9167" stroke="white" stroke-width="1.5" stroke-linecap="round" stroke-linejoin="round"/>
<path d="M26.6666 24.9167C26.6666 24.9167 24.5 19.5 24.5 16.25C24.5 12.7097 21.5403 9.75 18 9.75C14.4596 9.75 11.5 12.7097 11.5 16.25C11.5 20.5833 9.33331 24.9167 9.33331 24.9167H26.6666Z" fill="white" stroke="white" stroke-width="1.5" stroke-linecap="round" stroke-linejoin="round"/>
</svg>
