<svg width="41" height="29" viewBox="0 0 41 29" fill="none" xmlns="http://www.w3.org/2000/svg">
<rect width="41" height="29" rx="5.76117" fill="#4C3494"/>
<path fill-rule="evenodd" clip-rule="evenodd" d="M33.4942 10.997C32.531 10.1547 31.2065 9.76101 29.9326 9.88134C29.6143 9.91009 29.2985 9.96618 28.992 10.056C27.8693 10.3758 26.8847 11.1375 26.2968 12.1364C25.5064 13.4536 25.4118 15.1443 26.0219 16.5489C26.4749 17.607 27.341 18.4851 28.4027 18.9509C29.6085 19.4797 31.0356 19.4957 32.2521 18.9913C32.8723 18.7329 33.4347 18.3382 33.8856 17.8437C34.709 16.9532 35.147 15.7378 35.1191 14.5345C35.1119 13.1998 34.5204 11.8695 33.4942 10.997ZM27.9782 12.6678C28.4309 11.9994 29.1776 11.5333 29.9859 11.4339C30.6268 11.3477 31.2989 11.4741 31.8542 11.8066C32.3875 12.1201 32.8044 12.6117 33.0535 13.1722C33.5457 14.2903 33.4353 15.676 32.6922 16.6621C32.3399 17.1292 31.8452 17.4934 31.2835 17.673C30.5781 17.9006 29.7837 17.8516 29.1156 17.531C28.5886 17.2801 28.1481 16.8641 27.856 16.3636C27.2029 15.2398 27.2405 13.744 27.9782 12.6678ZM12.794 10.3736C11.9248 9.92744 10.9132 9.77836 9.94613 9.90543C9.01379 10.0243 8.11765 10.4247 7.42225 11.053C6.70893 11.6848 6.20817 12.5421 5.99166 13.4639C5.73035 14.5582 5.85079 15.7434 6.35083 16.7554C6.81001 17.7006 7.60793 18.4805 8.56966 18.921C9.52208 19.3597 10.62 19.4648 11.6452 19.2515C12.6302 19.0484 13.54 18.5131 14.1956 17.7578C14.8207 17.0443 15.21 16.1381 15.3194 15.2014C15.4251 14.3278 15.2943 13.4259 14.9347 12.6205C14.5085 11.6589 13.7411 10.8478 12.794 10.3736ZM8.92746 11.9383C9.311 11.6639 9.76588 11.4914 10.2344 11.4318C10.7954 11.3601 11.3793 11.4481 11.8865 11.699C12.4837 11.9876 12.9629 12.4927 13.245 13.0862C13.5655 13.7479 13.6526 14.5107 13.5318 15.2319C13.4203 15.89 13.1167 16.525 12.6314 16.9936C12.2141 17.4107 11.6592 17.6886 11.0739 17.7784C10.357 17.8902 9.59597 17.7365 8.99521 17.329C8.37472 16.919 7.9392 16.2649 7.75101 15.5546C7.56533 14.8532 7.58863 14.095 7.8313 13.4099C8.03777 12.8264 8.41702 12.2982 8.92746 11.9383ZM15.7518 10.1175L15.7514 10.1175C15.7511 10.4563 15.7512 10.7953 15.7513 11.1344C15.7513 11.3039 15.7514 11.4735 15.7514 11.6431C15.9837 11.6436 16.2157 11.6435 16.4479 11.6435C16.5253 11.6434 16.6027 11.6434 16.6801 11.6434C17.2545 12.9519 17.8282 14.2607 18.4019 15.5695C18.8184 16.5198 19.2349 17.4701 19.6517 18.4203C19.8456 18.8611 20.2532 19.2051 20.7274 19.314C20.9 19.3587 21.0779 19.3569 21.2553 19.3551C21.3104 19.3546 21.3655 19.354 21.4203 19.3549C21.9646 18.0854 22.5106 16.8168 23.0566 15.5481C23.7074 14.0359 24.3582 12.5238 25.006 11.0105C25.0225 10.8264 25.0199 10.6405 25.0174 10.4546C25.0159 10.342 25.0144 10.2293 25.0171 10.1171H22.0068V10.1202C22.0064 10.6281 22.0061 11.1358 22.0068 11.6434C22.1378 11.6436 22.2688 11.6435 22.3999 11.6435C22.5746 11.6434 22.7493 11.6434 22.924 11.6438C22.6844 12.2252 22.4453 12.8068 22.2063 13.3884C21.7427 14.5163 21.2791 15.6441 20.8113 16.7701C20.4465 15.9145 20.0817 15.059 19.7169 14.2035C19.3531 13.3503 18.9894 12.497 18.6255 11.6438C18.7796 11.6432 18.9338 11.6433 19.0881 11.6434C19.2423 11.6435 19.3967 11.6436 19.551 11.6431V10.1175C18.2847 10.1167 17.0185 10.1171 15.7518 10.1175Z" fill="white"/>
</svg>
