<svg width="41" height="29" viewBox="0 0 41 29" fill="none" xmlns="http://www.w3.org/2000/svg">
<rect width="41" height="29" rx="5.76117" fill="white"/>
<path fill-rule="evenodd" clip-rule="evenodd" d="M20.6524 10.9547C20.5311 10.9635 20.397 11.0887 20.3488 11.1573C20.2416 11.3101 20.2748 11.3724 20.2635 11.5534C20.246 11.4711 19.9298 11.147 19.8532 11.0879C19.6923 10.964 19.5161 10.8464 19.2825 10.7553C17.783 10.1698 16.1699 11.4432 16.4855 13.0533C16.5844 12.9641 16.6161 12.8955 16.7431 12.8251C17.1345 12.6077 17.5699 12.7451 17.7764 13.0673C18.02 13.4476 17.8947 14.1 17.1847 14.2276C17.8071 14.8349 18.9972 14.8803 19.7766 14.291C20.0639 14.0738 20.3494 13.7324 20.4957 13.2686C20.6792 12.6864 20.5785 12.3138 20.4053 11.7915C20.4865 11.8513 20.5844 11.9139 20.7196 11.9216C20.8887 11.9314 20.9677 11.863 21.0837 11.8147C21.0517 11.923 20.9981 12.0204 20.9605 12.1418C20.7494 12.8209 20.9543 13.6969 21.4481 14.1471C21.5712 14.2596 21.4795 14.2011 21.6784 14.3581C22.4644 14.9796 23.5033 14.9082 24.2983 14.2876C24.1784 14.2173 23.8904 14.2358 23.6996 13.9185C23.2543 13.1788 24.1934 12.3862 24.8519 12.9618C24.9077 13.0109 24.9127 13.0445 24.9721 13.0882C25.051 12.9243 25.0062 12.4895 24.9666 12.3043C24.6568 10.8585 22.9178 10.1936 21.6977 11.0953C21.4964 11.2441 21.4168 11.3638 21.2452 11.543C21.2577 11.1125 21.1136 11.1107 20.9062 10.9561C21.554 10.86 21.7954 10.7457 22.1943 10.417C22.507 10.1592 22.7675 9.6643 22.8396 9.21893C22.9305 8.65885 22.7757 8.14569 22.5225 7.76632C22.3086 7.44549 21.8612 7.04368 21.463 6.96289C21.6983 7.61881 21.2602 8.04769 20.7821 8.04618C20.2671 8.0445 19.8247 7.49747 20.0982 6.97125C19.7967 6.98461 19.2857 7.45169 19.0822 7.74418C18.5035 8.57583 18.6647 9.75983 19.3757 10.3907C19.7688 10.7396 19.9919 10.836 20.6524 10.9547Z" fill="#2A4095"/>
<path fill-rule="evenodd" clip-rule="evenodd" d="M16.4632 6.2425C16.6816 6.21236 23.4541 6.23787 24.0248 6.23787C24.3267 6.23787 24.981 6.18697 25.2071 6.31216C25.5306 6.4912 25.4797 6.86317 25.4797 7.29902V16.0853C25.4798 16.3778 25.4956 16.8079 25.0124 16.8757C24.7069 16.9188 24.0892 16.8828 23.7511 16.8828H17.4344C17.1322 16.8828 16.4642 16.9375 16.2478 16.8038C15.9243 16.6038 15.9846 16.265 15.9846 15.8132V7.02698C15.9846 6.82166 15.9713 6.64479 16.0721 6.48976C16.1501 6.36998 16.2736 6.26867 16.4632 6.2425ZM25.0421 5.83447H16.4166L16.3109 5.87009C16.1951 5.90029 16.1359 5.91948 16.0297 5.98686C15.9044 6.06639 15.8286 6.14014 15.7515 6.25463C15.5548 6.54628 15.5879 6.78247 15.5879 7.17344V15.855C15.5879 16.2077 15.5464 16.529 15.7156 16.8095C15.8435 17.0214 16.0364 17.2003 16.3557 17.2609C16.6062 17.3084 22.3409 17.2767 22.8878 17.2767C23.2447 17.2767 24.8551 17.2978 25.0698 17.2659C25.395 17.2177 25.5993 17.0351 25.7289 16.8366C25.9158 16.5508 25.8764 16.2702 25.8764 15.8969V7.1942C25.8764 6.81038 25.9108 6.54766 25.7211 6.26167C25.4826 5.90161 25.1549 5.89211 25.0421 5.83447Z" fill="#2A4095"/>
<path fill-rule="evenodd" clip-rule="evenodd" d="M5.2793 18.9116H7.21227C7.63346 18.9116 7.94857 19.0108 8.15862 19.21C8.36788 19.4091 8.473 19.6927 8.473 20.0607C8.473 20.438 8.35831 20.7338 8.12986 20.946C7.90134 21.1592 7.55202 21.2653 7.08269 21.2653H6.44545V22.6483H5.2793V18.9116ZM6.44531 20.5085H6.73154C6.95751 20.5085 7.11585 20.4695 7.20686 20.3919C7.29805 20.3146 7.34359 20.2154 7.34359 20.0945C7.34359 19.9771 7.30405 19.8779 7.22454 19.7962C7.14571 19.7144 6.99687 19.6736 6.77798 19.6736H6.44531V20.5085ZM9.87556 20.8166L8.87744 20.7122C8.9151 20.5382 8.96942 20.4017 9.04032 20.3025C9.11117 20.2025 9.21277 20.1163 9.34677 20.0432C9.44214 19.9902 9.57335 19.9494 9.74072 19.9206C9.9079 19.8919 10.0892 19.8771 10.2843 19.8771C10.5968 19.8771 10.8473 19.8945 11.0372 19.9293C11.2264 19.9642 11.3849 20.0372 11.5109 20.1476C11.6002 20.2242 11.6702 20.333 11.7209 20.4729C11.7726 20.613 11.798 20.7469 11.798 20.8748V22.0716C11.798 22.1995 11.8059 22.2996 11.8225 22.3717C11.8383 22.444 11.8741 22.5361 11.9285 22.6484H10.9505C10.911 22.5787 10.8858 22.5266 10.8734 22.4901C10.8622 22.4535 10.8499 22.3969 10.8375 22.3196C10.701 22.45 10.5652 22.5432 10.4297 22.5989C10.2449 22.6735 10.0305 22.711 9.78625 22.711C9.46133 22.711 9.21441 22.6362 9.0465 22.4857C8.87744 22.336 8.79346 22.1507 8.79346 21.9316C8.79346 21.7255 8.85383 21.5558 8.97547 21.4228C9.0973 21.2897 9.32128 21.1905 9.64783 21.1262C10.0391 21.0479 10.2932 20.9932 10.4096 20.9609C10.5259 20.9296 10.6493 20.8888 10.7789 20.8374C10.7789 20.7096 10.7528 20.6208 10.6993 20.5695C10.6469 20.5181 10.554 20.4929 10.4209 20.4929C10.2501 20.4929 10.1224 20.5199 10.0365 20.5747C9.96996 20.6182 9.91656 20.6982 9.87556 20.8166ZM10.7789 21.3593C10.6353 21.4107 10.4856 21.4559 10.3288 21.4958C10.1171 21.5523 9.98231 21.608 9.92612 21.6629C9.86757 21.7193 9.83862 21.7838 9.83862 21.8559C9.83862 21.9386 9.86757 22.0065 9.92436 22.0586C9.98231 22.1107 10.0663 22.1368 10.1775 22.1368C10.2938 22.1368 10.4024 22.1081 10.5032 22.0517C10.603 21.9951 10.6739 21.9263 10.7158 21.8446C10.7579 21.7629 10.7789 21.6568 10.7789 21.5263V21.3593ZM12.4229 19.9397H13.3965V20.3808C13.5417 20.1998 13.6879 20.0711 13.8367 19.9937C13.9856 19.9162 14.1659 19.8771 14.3795 19.8771C14.6685 19.8771 14.8935 19.9623 15.0572 20.1338C15.22 20.3042 15.3014 20.5687 15.3014 20.9261V22.6484H14.2509V21.1584C14.2509 20.9879 14.2193 20.8678 14.1563 20.7974C14.0933 20.727 14.0048 20.6913 13.891 20.6913C13.7659 20.6913 13.6635 20.7391 13.5855 20.834C13.5076 20.9296 13.4681 21.1001 13.4681 21.3472V22.6484H12.4229V19.9397ZM15.9634 22.6482H17.0087V19.9396H15.9634V22.6482ZM17.6758 19.9397H18.6493V20.3808C18.7946 20.1998 18.9409 20.0711 19.0896 19.9937C19.2385 19.9162 19.4187 19.8771 19.6325 19.8771C19.9213 19.8771 20.1464 19.9623 20.31 20.1338C20.473 20.3042 20.5543 20.5687 20.5543 20.9261V22.6484H19.5037V21.1584C19.5037 20.9879 19.4723 20.8678 19.4091 20.7974C19.3461 20.727 19.2577 20.6913 19.144 20.6913C19.0187 20.6913 18.9163 20.7391 18.8384 20.834C18.7604 20.9296 18.7211 21.1001 18.7211 21.3472V22.6484H17.6758V19.9397Z" fill="#FF0000"/>
<path fill-rule="evenodd" clip-rule="evenodd" d="M21.5122 18.9116H23.6895C24.052 18.9116 24.3304 19.0013 24.5249 19.1795C24.7191 19.3577 24.8163 19.5787 24.8163 19.8423C24.8163 20.0631 24.7471 20.2528 24.608 20.4103C24.5159 20.5163 24.3803 20.5991 24.2026 20.6608C24.4731 20.7252 24.671 20.8356 24.7987 20.9931C24.9258 21.1504 24.9897 21.3479 24.9897 21.5854C24.9897 21.7794 24.9441 21.9533 24.854 22.108C24.7629 22.2629 24.6386 22.3847 24.4818 22.4753C24.3838 22.5308 24.2366 22.5717 24.0398 22.5969C23.778 22.6309 23.6047 22.6483 23.5189 22.6483H21.5122V18.9116ZM22.6838 20.3782H23.1908C23.3719 20.3782 23.4989 20.3468 23.5696 20.2851C23.6407 20.2224 23.6766 20.1329 23.6766 20.0154C23.6766 19.9068 23.6407 19.8215 23.5696 19.7605C23.4989 19.6989 23.3745 19.6684 23.1985 19.6684H22.6838V20.3782ZM22.6838 21.8446H23.2765C23.4769 21.8446 23.618 21.8089 23.7001 21.7384C23.7825 21.6679 23.8236 21.5741 23.8236 21.4548C23.8236 21.3444 23.7834 21.2557 23.702 21.1886C23.6206 21.1218 23.4778 21.0878 23.2739 21.0878H22.6838V21.8446ZM26.4804 20.8166L25.4825 20.7122C25.5201 20.5382 25.5744 20.4017 25.6453 20.3025C25.7162 20.2025 25.8178 20.1163 25.9516 20.0432C26.0471 19.9902 26.1784 19.9494 26.3457 19.9206C26.5129 19.8919 26.6941 19.8771 26.8893 19.8771C27.2018 19.8771 27.4523 19.8945 27.6422 19.9293C27.8314 19.9642 27.9897 20.0372 28.1158 20.1476C28.205 20.2242 28.2751 20.333 28.3259 20.4729C28.3776 20.613 28.403 20.7469 28.403 20.8748V22.0716C28.403 22.1995 28.4108 22.2996 28.4274 22.3717C28.4432 22.444 28.4792 22.5361 28.5335 22.6484H27.5555C27.5162 22.5787 27.4908 22.5266 27.4784 22.4901C27.4672 22.4535 27.4549 22.3969 27.4427 22.3196C27.306 22.45 27.1703 22.5432 27.0347 22.5989C26.8498 22.6735 26.6354 22.711 26.3912 22.711C26.0663 22.711 25.8194 22.6362 25.6514 22.4857C25.4825 22.336 25.3984 22.1507 25.3984 21.9316C25.3984 21.7255 25.4587 21.5558 25.5805 21.4228C25.7022 21.2897 25.9263 21.1905 26.2529 21.1262C26.6442 21.0479 26.898 20.9932 27.0145 20.9609C27.1309 20.9296 27.2544 20.8888 27.3838 20.8374C27.3838 20.7096 27.3577 20.6208 27.3043 20.5695C27.2517 20.5181 27.159 20.4929 27.0258 20.4929C26.8551 20.4929 26.7274 20.5199 26.6415 20.5747C26.5749 20.6182 26.5215 20.6982 26.4804 20.8166ZM27.384 21.3593C27.2406 21.4107 27.0909 21.4559 26.9341 21.4958C26.7223 21.5523 26.5875 21.608 26.5315 21.6629C26.4728 21.7193 26.4438 21.7838 26.4438 21.8559C26.4438 21.9386 26.4728 22.0065 26.5296 22.0586C26.5875 22.1107 26.6714 22.1368 26.7827 22.1368C26.8991 22.1368 27.0076 22.1081 27.1084 22.0517C27.2082 21.9951 27.279 21.9263 27.321 21.8446C27.3631 21.7629 27.384 21.6568 27.384 21.5263V21.3593ZM29.0281 19.9397H30.0017V20.3808C30.1471 20.1998 30.2932 20.0711 30.4421 19.9937C30.5908 19.9162 30.7712 19.8771 30.9848 19.8771C31.2737 19.8771 31.4986 19.9623 31.6624 20.1338C31.8252 20.3042 31.9067 20.5687 31.9067 20.9261V22.6484H30.8561V21.1584C30.8561 20.9879 30.8246 20.8678 30.7616 20.7974C30.6986 20.727 30.6102 20.6913 30.4963 20.6913C30.371 20.6913 30.2687 20.7391 30.1907 20.834C30.1128 20.9296 30.0734 21.1001 30.0734 21.3472V22.6484H29.0281V19.9397ZM32.5318 18.9116H33.5981V20.8356L34.3783 19.9396H35.6625L34.6856 20.8877L35.7202 22.6483H34.5445L33.9913 21.5627L33.5981 21.9446V22.6483H32.5318V18.9116Z" fill="#2A4095"/>
<path fill-rule="evenodd" clip-rule="evenodd" d="M16.604 15.423H17.0041C17.0913 15.423 17.1564 15.4435 17.2001 15.4847C17.2434 15.5259 17.2651 15.5845 17.2651 15.6608C17.2651 15.7389 17.2412 15.8002 17.194 15.8441C17.1467 15.8883 17.0744 15.9101 16.9774 15.9101H16.8454V16.1965H16.604V15.423ZM16.8455 15.7534H16.9046C16.9514 15.7534 16.9842 15.7453 17.003 15.7293C17.0218 15.7133 17.0312 15.6927 17.0312 15.6676C17.0312 15.6433 17.0232 15.6228 17.0066 15.6059C16.9904 15.589 16.9595 15.5805 16.9142 15.5805H16.8455V15.7534ZM17.7767 16.0689H17.5041L17.4651 16.1963H17.2195L17.5125 15.4228H17.7758L18.0676 16.1963H17.8157L17.7767 16.0689ZM17.726 15.9014L17.641 15.6233L17.5557 15.9014H17.726ZM18.146 15.4228H18.3704L18.6625 15.8498V15.4228H18.8897V16.1963H18.6625L18.3722 15.7716V16.1963H18.146V15.4228ZM19.0591 16.1963H19.3004V15.4228H19.0591V16.1963ZM19.4746 15.4228H19.6992L19.9911 15.8498V15.4228H20.2184V16.1963H19.9911L19.7008 15.7716V16.1963H19.4746V15.4228ZM21.1322 15.9165V15.7556H21.5042V16.0846C21.433 16.1329 21.3701 16.1658 21.3155 16.1832C21.2609 16.2007 21.1959 16.2094 21.1209 16.2094C21.0285 16.2094 20.9531 16.1937 20.8949 16.1624C20.8368 16.1312 20.7915 16.0846 20.7596 16.0226C20.7275 15.9608 20.7115 15.8898 20.7115 15.8097C20.7115 15.7252 20.729 15.6518 20.764 15.5894C20.7992 15.5271 20.8502 15.4798 20.918 15.4473C20.9706 15.4224 21.0417 15.4099 21.1309 15.4099C21.2168 15.4099 21.2811 15.4177 21.3238 15.4332C21.3665 15.4485 21.4018 15.4725 21.4299 15.5051C21.4579 15.5378 21.4791 15.579 21.4934 15.6288L21.2616 15.6703C21.2521 15.6409 21.2359 15.6185 21.2132 15.603C21.1903 15.5873 21.1614 15.5796 21.1259 15.5796C21.0733 15.5796 21.0312 15.5977 20.9998 15.634C20.9685 15.6705 20.9528 15.7282 20.9528 15.8067C20.9528 15.8903 20.9686 15.9501 21.0004 15.9859C21.032 16.0217 21.0761 16.0397 21.1327 16.0397C21.1595 16.0397 21.185 16.0361 21.2095 16.0282C21.2338 16.0205 21.2616 16.0072 21.2932 15.9889V15.9165H21.1322ZM21.6499 16.1963V15.4228H22.0508C22.1251 15.4228 22.1821 15.4291 22.2213 15.4418C22.2606 15.4544 22.2923 15.4782 22.3163 15.5123C22.3404 15.5467 22.3524 15.5885 22.3524 15.6379C22.3524 15.6808 22.343 15.7179 22.3246 15.7489C22.3063 15.7803 22.281 15.8055 22.2486 15.825C22.228 15.8372 22.1997 15.8475 22.1641 15.8557C22.1928 15.865 22.2135 15.8746 22.2266 15.8841C22.2354 15.8905 22.2482 15.9041 22.265 15.9247C22.2816 15.9455 22.2929 15.9615 22.2986 15.9728L22.4155 16.1963H22.1437L22.0151 15.9605C21.9988 15.9298 21.9844 15.91 21.9715 15.9009C21.9542 15.889 21.9344 15.8829 21.9126 15.8829H21.8914V16.1963H21.6499ZM21.8914 15.7371H21.9929C22.0039 15.7371 22.0253 15.7336 22.0568 15.7265C22.0728 15.7235 22.0858 15.7155 22.0958 15.7023C22.1059 15.6892 22.111 15.6743 22.111 15.6573C22.111 15.6323 22.1029 15.613 22.087 15.5997C22.0711 15.5861 22.0412 15.5795 21.9971 15.5795H21.8914V15.7371ZM22.4434 15.8103C22.4434 15.684 22.4786 15.5857 22.5496 15.5154C22.6205 15.445 22.7191 15.4099 22.8455 15.4099C22.9751 15.4099 23.0749 15.4446 23.145 15.5134C23.2152 15.5827 23.2502 15.6795 23.2502 15.804C23.2502 15.8942 23.235 15.9682 23.2044 16.0261C23.1737 16.0838 23.1293 16.1289 23.0716 16.1612C23.0135 16.1934 22.9413 16.2094 22.8549 16.2094C22.7672 16.2094 22.6946 16.1955 22.6369 16.1678C22.5795 16.1398 22.5327 16.096 22.497 16.0357C22.4613 15.9758 22.4434 15.9005 22.4434 15.8103ZM22.6836 15.8107C22.6836 15.8886 22.6983 15.9448 22.7276 15.9789C22.7568 16.0129 22.7968 16.0299 22.847 16.0299C22.8988 16.0299 22.939 16.0132 22.9673 15.98C22.9958 15.9465 23.0099 15.8866 23.0099 15.8C23.0099 15.7273 22.995 15.6742 22.9655 15.6407C22.9358 15.607 22.8956 15.5903 22.8449 15.5903C22.7965 15.5903 22.7573 15.6073 22.7279 15.6414C22.6983 15.6755 22.6836 15.7319 22.6836 15.8107ZM23.8863 15.4228H24.1265V15.8835C24.1265 15.929 24.1195 15.9722 24.105 16.0129C24.0906 16.0535 24.0684 16.089 24.0375 16.1194C24.0069 16.1499 23.9749 16.1711 23.9414 16.1835C23.8946 16.2006 23.8385 16.2093 23.773 16.2093C23.7351 16.2093 23.6937 16.2064 23.649 16.2014C23.6043 16.1962 23.5669 16.1857 23.5368 16.17C23.5066 16.1543 23.4791 16.1321 23.4543 16.1035C23.4292 16.0747 23.4122 16.0449 23.403 16.0142C23.3881 15.9651 23.3806 15.9215 23.3806 15.8835V15.4228H23.621V15.8944C23.621 15.9367 23.6327 15.9696 23.6561 15.9932C23.6797 16.017 23.7124 16.0289 23.754 16.0289C23.7951 16.0289 23.8275 16.0171 23.8512 15.9938C23.8745 15.9706 23.8863 15.9374 23.8863 15.8944V15.4228ZM24.2842 15.4228H24.6843C24.7714 15.4228 24.8366 15.4434 24.8802 15.4846C24.9235 15.5258 24.9453 15.5844 24.9453 15.6607C24.9453 15.7388 24.9214 15.8 24.8742 15.844C24.8268 15.8881 24.7546 15.91 24.6575 15.91H24.5256V16.1963H24.2842V15.4228ZM24.5256 15.7534H24.5848C24.6315 15.7534 24.6644 15.7453 24.6833 15.7293C24.702 15.7133 24.7115 15.6927 24.7115 15.6676C24.7115 15.6433 24.7034 15.6228 24.6868 15.6059C24.6705 15.589 24.6398 15.5805 24.5944 15.5805H24.5256V15.7534Z" fill="#2A4095"/>
<path fill-rule="evenodd" clip-rule="evenodd" d="M16.4933 18.3369C16.8562 18.3369 17.1502 18.6291 17.1502 18.9896C17.1502 19.3501 16.8562 19.6423 16.4933 19.6423C16.1305 19.6423 15.8364 19.3501 15.8364 18.9896C15.8364 18.6291 16.1305 18.3369 16.4933 18.3369Z" fill="#2A4095"/>
</svg>
