<svg width="12" height="12" viewBox="0 0 12 12" fill="none" xmlns="http://www.w3.org/2000/svg">
<path d="M9.5 7.5C10.6046 7.5 11.5 8.39545 11.5 9.5V10.5H10.5" stroke="#1985E7" stroke-linecap="round" stroke-linejoin="round"/>
<path d="M8 5.437C8.8626 5.21495 9.5 4.43191 9.5 3.49999C9.5 2.56807 8.8626 1.78502 8 1.563" stroke="#1985E7" stroke-linecap="round" stroke-linejoin="round"/>
<path d="M4.5 5.5C5.60455 5.5 6.5 4.60457 6.5 3.5C6.5 2.39543 5.60455 1.5 4.5 1.5C3.39543 1.5 2.5 2.39543 2.5 3.5C2.5 4.60457 3.39543 5.5 4.5 5.5Z" stroke="#1985E7" stroke-linecap="round" stroke-linejoin="round"/>
<path d="M6.5 7.5H2.5C1.39543 7.5 0.5 8.39545 0.5 9.5V10.5H8.5V9.5C8.5 8.39545 7.60455 7.5 6.5 7.5Z" stroke="#1985E7" stroke-linecap="round" stroke-linejoin="round"/>
</svg>
