<svg width="26" height="26" viewBox="0 0 26 26" fill="none" xmlns="http://www.w3.org/2000/svg">
<path d="M13 3.25C7.61523 3.25 3.25 7.61523 3.25 13C3.25 18.3848 7.61523 22.75 13 22.75C18.3848 22.75 22.75 18.3848 22.75 13C22.75 7.61523 18.3848 3.25 13 3.25Z" stroke="#717171"/>
<path d="M13 13C14.795 13 16.25 11.545 16.25 9.75C16.25 7.95508 14.795 6.5 13 6.5C11.205 6.5 9.75 7.95508 9.75 9.75C9.75 11.545 11.205 13 13 13Z" stroke="#717171"/>
<path d="M6.5 20.2673C6.5 18.5126 7.76936 16.25 9.75 16.25H16.25C18.2307 16.25 19.5 18.5126 19.5 20.2673" stroke="#717171"/>
</svg>
