<svg width="26" height="26" viewBox="0 0 26 26" fill="none" xmlns="http://www.w3.org/2000/svg">
<path d="M22.6992 14.0833V14.0779" stroke="#717171" stroke-linecap="round" stroke-linejoin="round"/>
<path d="M20.583 8.01667C20.8655 7.13763 21.706 6.5 22.6989 6.5C23.9236 6.5 24.9163 7.47005 24.9163 8.66667C24.9163 10.4073 23.0557 9.55151 22.7497 11.375" stroke="#717171" stroke-linecap="round" stroke-linejoin="round"/>
<path d="M17.333 16.25H8.66634C6.27311 16.25 4.33301 18.1901 4.33301 20.5833V22.75H12.9997H21.6663V20.5833C21.6663 18.1901 19.7262 16.25 17.333 16.25Z" stroke="#717171" stroke-linecap="round" stroke-linejoin="round"/>
<path d="M12.9993 11.9167C15.3925 11.9167 17.3327 9.97657 17.3327 7.58333C17.3327 5.1901 15.3925 3.25 12.9993 3.25C10.6061 3.25 8.66602 5.1901 8.66602 7.58333C8.66602 9.97657 10.6061 11.9167 12.9993 11.9167Z" stroke="#717171" stroke-linecap="round" stroke-linejoin="round"/>
</svg>
